I:TorrentsLion_King-Title27.mkv
   General
      Complete name : I:TorrentsLion_King-Title27.mkv
      Format : Matroska
      File size : 2.82 GiB
      Duration : 1h 25mn
      Overall bit rate : 4 742 Kbps
      Writing application : Lavf52.13.0
      Writing library : Lavf52.13.0
   Video #1
      ID : 1
      Format : MPEG-4 Visual
      Format profile : Simple@L1
      Format settings, BVOP : No
      Format settings, QPel : No
      Format settings, GMC : No warppoints
      Format settings, Matrix : Default (H.263)
      Codec ID : V_MPEG4/ISO/ASP
      Codec ID/Info : Advanced Simple Profile
      Duration : 1h 25mn
      Bit rate : 4 327 Kbps
      Width : 1 280 pixels
      Height : 720 pixels
      Display aspect ratio : 16:9
      Frame rate mode : Constant
      Frame rate : 29.970 fps
      Resolution : 24 bits
      Colorimetry : 4:2:0
      Scan type : Progressive
      Bits/(Pixel*Frame) : 0.157
      Stream size : 2.57 GiB (91%)
      Writing library : Lavc51.54.0
   Audio #2
      ID : 2
      Format : AC-3
      Format/Info : Audio Coding 3
      Codec ID : A_AC3
      Duration : 1h 25mn
      Bit rate mode : Constant
      Bit rate : 320 Kbps
      Channel(s) : 6 channels
      Channel positions : Front: L C R, Surround: L R, LFE
      Sampling rate : 48.0 KHz
      Resolution : 16 bits
      Stream size : 195 MiB (7%)